<svg viewBox="0 0 24 24" xmlns="http://www.w3.org/2000/svg" fill="currentColor"><path d="M19.14 12.94c.04-.3.06-.59.06-.94 0-.35-.02-.64-.07-.94l1.72-1.34c.15-.12.19-.34.1-.51l-1.63-2.82c-.12-.22-.37-.29-.59-.22l-2.03.81c-.42-.32-.9-.6-1.44-.84l-.3-2.16c-.04-.24-.25-.41-.5-.41h-3.26c-.25 0-.46.17-.49.41l-.3 2.16c-.54.24-1.02.52-1.44.84l-2.03-.81c-.22-.09-.47 0-.59.22L2.74 8.87c-.09.17-.05.39.1.51l1.72 1.34c-.05.3-.07.59-.07.94 0 .35.02.64.07.94l-1.72 1.34c-.15.12-.19.34-.1.51l1.63 2.82c.12.22.37.29.59.22l2.03-.81c.42.32.9.6 1.44.84l.3 2.16c.04.24.25.41.5.41h3.26c.25 0 .46-.17.49-.41l.3-2.16c.54-.24 1.02-.52 1.44-.84l2.03.81c.22.09.47 0 .59-.22l1.63-2.82c.09-.17.05-.39-.1-.51l-1.72-1.34z"/></svg>